Coordinates
version=1
nRows=32
nColumns=12
inDegrees=yes

Units are S.I. units (second, meters, Newtons, ...)
Angles are in degrees

endheader
time	SC_y	SC_z	SC_x	AC_y	AC_z	AC_x	GH_y	GH_z	GH_yy	EL_x	PS_y
       0.0              -56.48         0.1619          79.55          46.69         -12.96          5.629          3.676          87.97          155.4          15.19          31.29
   0.03795              -56.48         0.1633          79.55          46.69         -12.96          5.628          3.655          87.96          155.4          15.19          31.29
   0.07589              -56.48         0.1648          79.54          46.69         -12.96          5.627          3.632          87.95          155.4          15.19          31.29
    0.1138              -56.48         0.1664          79.54           46.7         -12.96          5.627          3.608          87.93          155.4           15.2          31.29
    0.1518              -56.48         0.1682          79.53           46.7         -12.96          5.626          3.582          87.92          155.4           15.2          31.29
    0.1897              -56.48           0.17          79.53           46.7         -12.96          5.625          3.555           87.9          155.4           15.2          31.29
    0.2277              -56.48          0.172          79.52           46.7         -12.97          5.624          3.525          87.89          155.4           15.2           31.3
    0.2656              -56.49         0.1741          79.51          46.71         -12.97          5.623          3.494          87.87          155.3          15.21           31.3
    0.3036              -56.49         0.1763          79.51          46.71         -12.97          5.622           3.46          87.85          155.3          15.21           31.3
    0.3415              -56.49         0.1788           79.5          46.71         -12.97          5.621          3.424          87.83          155.3          15.21           31.3
    0.3795              -56.49         0.1814          79.49          46.72         -12.97           5.62          3.386          87.81          155.3          15.21           31.3
    0.4174              -56.49         0.1841          79.48          46.72         -12.97          5.618          3.344          87.79          155.3          15.22           31.3
    0.4553              -56.49         0.1872          79.47          46.72         -12.98          5.617          3.299          87.76          155.3          15.22           31.3
    0.4933              -56.49         0.1904          79.46          46.73         -12.98          5.615          3.251          87.74          155.3          15.22           31.3
    0.5312              -56.49         0.1939          79.45          46.73         -12.98          5.614          3.198          87.71          155.3          15.23          31.31
    0.5692              -56.49         0.1978          79.44          46.74         -12.98          5.612          3.141          87.68          155.3          15.23          31.31
    0.6071              -56.49         0.2019          79.43          46.74         -12.98           5.61          3.079          87.64          155.2          15.24          31.31
    0.6451              -56.49         0.2064          79.41          46.75         -12.99          5.608          3.012           87.6          155.2          15.24          31.31
     0.683              -56.49         0.2114           79.4          46.76         -12.99          5.606          2.939          87.56          155.2          15.25          31.31
     0.721              -56.49         0.2168          79.38          46.77         -12.99          5.603          2.858          87.52          155.2          15.26          31.32
    0.7589              -56.49         0.2227          79.36          46.77          -13.0            5.6           2.77          87.47          155.2          15.26          31.32
    0.7969              -56.49         0.2292          79.34          46.78          -13.0          5.597          2.672          87.42          155.1          15.27          31.32
    0.8348               -56.5         0.2364          79.32          46.79         -13.01          5.594          2.565          87.36          155.1          15.28          31.33
    0.8728               -56.5         0.2444          79.29           46.8         -13.01           5.59          2.446          87.29          155.1          15.29          31.33
    0.9107               -56.5         0.2533          79.26          46.82         -13.02          5.586          2.313          87.22          155.0           15.3          31.33
    0.9486               -56.5         0.2632          79.23          46.83         -13.02          5.581          2.166          87.14          155.0          15.31          31.34
    0.9866               -56.5         0.2744           79.2          46.84         -13.03          5.576            2.0          87.05          155.0          15.32          31.34
     1.025               -56.5         0.2868          79.16          46.86         -13.04           5.57          1.814          86.94          154.9          15.34          31.35
     1.062              -56.51          0.301          79.11          46.88         -13.05          5.564          1.604          86.83          154.9          15.36          31.35
       1.1              -56.51          0.317          79.06           46.9         -13.06          5.556          1.365           86.7          154.8          15.37          31.36
     1.138              -56.51         0.3353           79.0          46.93         -13.07          5.547          1.092          86.55          154.7           15.4          31.37
     1.176              -56.51         0.3563          78.94          46.96         -13.08          5.538         0.7794          86.37          154.6          15.42          31.38
